<svg xmlns="http://www.w3.org/2000/svg" width="1024" height="1024" viewBox="0 0 1024 1024" role="img" aria-label="Radish Intelligence 萝卜智能标识">
  <path fill="#4f9c83" d="M 597.3 994 L 596.78 991.73 L 596.26 989.46 L 595.72 987.19 L 595.19 984.92 L 594.65 982.65 L 594.1 980.39 L 593.56 978.12 L 593.01 975.86 L 592.46 973.59 L 591.91 971.33 L 591.35 969.06 L 590.8 966.8 L 590.24 964.54 L 589.68 962.27 L 589.12 960.01 L 588.56 957.75 L 588 955.49 L 587.44 953.22 L 586.87 950.96 L 586.31 948.7 L 585.74 946.44 L 585.17 944.18 L 584.6 941.92 L 584.04 939.66 L 583.47 937.4 L 551.79 941.75 L 549.21 941.18 L 546.65 940.6 L 544.11 940.02 L 541.58 939.44 L 539.06 938.86 L 536.56 938.28 L 534.07 937.69 L 531.59 937.09 L 529.13 936.5 L 526.68 935.9 L 524.25 935.3 L 521.83 934.7 L 519.42 934.09 L 517.03 933.48 L 514.65 932.87 L 512.29 932.25 L 509.94 931.63 L 507.61 931.01 L 505.28 930.39 L 502.97 929.76 L 500.68 929.13 L 498.4 928.5 L 496.13 927.86 L 493.88 927.22 L 491.64 926.58 L 489.41 925.93 L 487.2 925.29 L 485 924.63 L 482.82 923.98 L 480.65 923.32 L 478.49 922.66 L 476.35 922 L 474.22 921.34 L 472.1 920.67 L 470 920 L 467.91 919.32 L 465.84 918.65 L 463.77 917.97 L 461.73 917.28 L 459.69 916.6 L 457.67 915.91 L 455.66 915.22 L 453.67 914.52 L 451.69 913.83 L 449.72 913.13 L 447.77 912.42 L 445.82 911.72 L 443.9 911.01 L 441.98 910.3 L 440.08 909.58 L 438.2 908.87 L 436.32 908.15 L 434.46 907.42 L 432.61 906.7 L 430.78 905.97 L 428.96 905.24 L 427.15 904.51 L 425.36 903.77 L 423.58 903.03 L 421.81 902.29 L 420.05 901.54 L 418.31 900.79 L 416.58 900.04 L 414.87 899.29 L 413.16 898.53 L 411.48 897.78 L 409.8 897.01 L 408.14 896.25 L 406.49 895.48 L 404.85 894.71 L 403.22 893.94 L 401.61 893.16 L 400.01 892.38 L 398.43 891.6 L 396.85 890.82 L 395.29 890.03 L 393.75 889.24 L 392.21 888.45 L 390.69 887.66 L 389.18 886.86 L 387.69 886.06 L 386.2 885.26 L 384.73 884.45 L 383.28 883.64 L 381.83 882.83 L 380.4 882.02 L 378.98 881.2 L 377.57 880.38 L 376.18 879.56 L 374.79 878.74 L 373.42 877.91 L 372.07 877.08 L 370.72 876.25 L 369.39 875.41 L 368.07 874.58 L 366.76 873.74 L 365.47 872.89 L 364.18 872.05 L 362.91 871.2 L 361.66 870.35 L 360.41 869.49 L 359.18 868.64 L 357.96 867.78 L 356.75 866.92 L 355.55 866.06 L 354.37 865.19 L 353.19 864.32 L 352.03 863.45 L 350.88 862.57 L 349.75 861.7 L 348.62 860.82 L 347.51 859.94 L 346.41 859.05 L 345.32 858.17 L 344.25 857.28 L 343.18 856.38 L 342.13 855.49 L 341.09 854.59 L 340.06 853.69 L 339.04 852.79 L 338.04 851.89 L 337.05 850.98 L 336.06 850.07 L 335.09 849.16 L 334.13 848.25 L 333.19 847.33 L 332.25 846.41 L 331.33 845.49 L 330.42 844.56 L 329.52 843.64 L 328.63 842.71 L 327.75 841.78 L 326.88 840.84 L 326.03 839.91 L 325.18 838.97 L 324.35 838.03 L 323.53 837.08 L 322.72 836.14 L 321.92 835.19 L 321.13 834.24 L 320.35 833.28 L 319.59 832.33 L 318.83 831.37 L 318.09 830.41 L 317.36 829.45 L 316.64 828.48 L 315.92 827.52 L 315.22 826.55 L 314.53 825.58 L 313.86 824.6 L 313.19 823.63 L 312.53 822.65 L 311.88 821.67 L 311.25 820.68 L 310.62 819.7 L 310.01 818.71 L 309.4 817.72 L 308.81 816.73 L 308.22 815.74 L 307.65 814.74 L 307.09 813.74 L 306.53 812.74 L 305.99 811.74 L 305.46 810.73 L 304.93 809.73 L 304.42 808.72 L 303.92 807.71 L 303.43 806.69 L 302.94 805.68 L 302.47 804.66 L 302 803.64 L 301.55 802.62 L 301.1 801.6 L 300.67 800.57 L 300.24 799.54 L 299.83 798.51 L 299.42 797.48 L 299.02 796.45 L 298.63 795.41 L 298.25 794.38 L 297.88 793.34 L 297.52 792.3 L 297.16 791.25 L 296.82 790.21 L 296.48 789.16 L 296.15 788.11 L 295.83 787.06 L 295.52 786.01 L 295.22 784.96 L 294.92 783.9 L 294.63 782.85 L 294.35 781.79 L 294.08 780.73 L 293.81 779.67 L 293.55 778.6 L 293.3 777.54 L 293.06 776.47 L 292.82 775.4 L 292.58 774.34 L 539.23 720.79 L 434.28 227.04 L 427.83 228.5 L 421.43 230.13 L 415.07 231.92 L 408.76 233.88 L 402.5 236.01 L 396.3 238.29 L 390.17 240.74 L 384.1 243.35 L 378.1 246.11 L 372.17 249.04 L 366.32 252.11 L 360.56 255.34 L 354.88 258.72 L 349.29 262.25 L 343.8 265.92 L 338.4 269.73 L 333.11 273.68 L 327.92 277.77 L 322.84 282 L 317.87 286.36 L 313.02 290.84 L 308.29 295.45 L 303.67 300.18 L 299.19 305.04 L 294.83 310 L 290.61 315.08 L 286.52 320.27 L 282.56 325.57 L 278.75 330.96 L 275.08 336.46 L 271.55 342.04 L 268.18 347.72 L 264.95 353.49 L 261.87 359.34 L 258.95 365.26 L 256.18 371.26 L 253.57 377.33 L 251.13 383.47 L 248.84 389.67 L 246.71 395.93 L 244.76 402.24 L 242.96 408.59 L 241.34 415 L 239.88 421.44 L 238.59 427.92 L 237.47 434.44 L 236.52 440.97 L 235.74 447.54 L 235.14 454.12 L 234.71 460.71 L 234.45 467.31 L 234.36 473.92 L 234.45 480.52 L 234.71 487.13 L 235.14 493.72 L 235.74 500.3 L 236.52 506.86 L 237.47 513.4 L 238.59 519.91 L 239.88 526.39 L 241.34 532.84 L 242.96 539.24 L 244.76 545.6 L 246.71 551.91 L 248.84 558.17 L 251.13 564.37 L 253.57 570.5 L 256.18 576.57 L 258.95 582.57 L 261.87 588.5 L 264.95 594.35 L 268.18 600.11 L 271.55 605.79 L 275.08 611.38 L 278.75 616.87 L 282.56 622.27 L 286.52 627.56 L 290.61 632.75 L 294.83 637.83 L 299.19 642.8 L 303.67 647.65 L 308.29 652.38 L 313.02 657 L 317.87 661.48 L 322.84 665.84 L 327.92 670.06 L 333.11 674.15 L 338.4 678.11 L 343.8 681.92 L 349.29 685.59 L 354.88 689.12 L 360.56 692.49 L 366.32 695.72 L 372.17 698.8 L 378.1 701.72 L 384.1 704.49 L 390.17 707.1 L 396.3 709.54 L 402.5 711.83 L 408.76 713.95 L 415.07 715.91 L 421.43 717.71 L 427.83 719.33 L 434.28 720.79 L 440.76 722.08 L 447.27 723.2 L 453.81 724.15 L 460.37 724.93 L 466.95 725.53 L 473.54 725.96 L 480.14 726.22 L 486.75 726.31 L 493.36 726.22 L 499.96 725.96 L 506.55 725.53 L 513.13 724.93 L 519.7 724.15 L 526.23 723.2 L 532.75 722.08 L 539.23 720.79 L 545.67 719.33 L 552.08 717.71 L 558.43 715.91 L 564.74 713.95 L 571 711.83 L 577.2 709.54 L 583.34 707.1 L 589.41 704.49 L 595.41 701.72 L 601.33 698.8 L 607.18 695.72 L 612.95 692.49 L 618.63 689.12 L 624.21 685.59 L 629.71 681.92 L 635.1 678.11 L 640.4 674.15 L 645.59 670.06 L 650.67 665.84 L 655.63 661.48 L 660.49 657 L 665.22 652.38 L 669.83 647.65 L 674.31 642.8 L 678.67 637.83 L 682.9 632.75 L 686.99 627.56 L 690.94 622.27 L 694.75 616.87 L 698.42 611.38 L 701.95 605.79 L 705.33 600.11 L 708.56 594.35 L 711.63 588.5 L 714.55 582.57 L 717.32 576.57 L 719.93 570.5 L 722.38 564.37 L 724.66 558.17 L 726.79 551.91 L 728.75 545.6 L 730.54 539.24 L 732.17 532.84 L 733.63 526.39 L 734.92 519.91 L 736.03 513.4 L 736.98 506.86 L 737.76 500.3 L 738.36 493.72 L 738.8 487.13 L 739.05 480.52 L 739.14 473.92 L 739.05 467.31 L 738.8 460.71 L 738.36 454.12 L 737.76 447.54 L 736.98 440.97 L 736.03 434.44 L 734.92 427.92 L 733.63 421.44 L 732.17 415 L 730.54 408.59 L 728.75 402.24 L 726.79 395.93 L 724.66 389.67 L 722.38 383.47 L 719.93 377.33 L 717.32 371.26 L 714.55 365.26 L 711.63 359.34 L 708.56 353.49 L 705.33 347.72 L 701.95 342.04 L 698.42 336.46 L 694.75 330.96 L 690.94 325.57 L 686.99 320.27 L 682.9 315.08 L 678.67 310 L 674.31 305.04 L 669.83 300.18 L 665.22 295.45 L 660.49 290.84 L 655.63 286.36 L 650.67 282 L 645.59 277.77 L 640.4 273.68 L 635.1 269.73 L 629.71 265.92 L 624.21 262.25 L 618.63 258.72 L 612.95 255.34 L 607.18 252.11 L 601.33 249.04 L 595.41 246.11 L 589.41 243.35 L 583.34 240.74 L 577.2 238.29 L 571 236.01 L 564.74 233.88 L 558.43 231.92 L 552.08 230.13 L 545.67 228.5 L 539.23 227.04 L 532.75 225.75 L 526.23 224.64 L 519.7 223.69 L 513.13 222.91 L 506.55 222.31 L 499.96 221.87 L 493.36 221.61 L 486.75 221.53 L 480.14 221.61 L 473.54 221.87 L 466.95 222.31 L 460.37 222.91 L 453.81 223.69 L 447.27 224.64 L 440.76 225.75 L 434.28 227.04 L 427.83 228.5 L 421.43 230.13 L 415.07 231.92 L 408.76 233.88 L 402.5 236.01 L 396.3 238.29 L 390.17 240.74 L 384.1 243.35 L 378.1 246.11 L 372.17 249.04 L 366.32 252.11 L 360.56 255.34 L 354.88 258.72 L 349.29 262.25 L 343.8 265.92 L 338.4 269.73 L 333.11 273.68 L 327.92 277.77 L 322.84 282 L 317.87 286.36 L 313.02 290.84 L 308.29 295.45 L 303.67 300.18 L 299.19 305.04 L 294.83 310 L 290.61 315.08 L 286.52 320.27 L 282.56 325.57 L 278.75 330.96 L 275.08 336.46 L 271.55 342.04 L 268.18 347.72 L 264.95 353.49 L 261.87 359.34 L 258.95 365.26 L 256.18 371.26 L 253.57 377.33 L 251.13 383.47 L 248.84 389.67 L 246.71 395.93 L 244.76 402.24 L 242.96 408.59 L 241.34 415 L 239.88 421.44 L 238.59 427.92 L 237.47 434.44 L 236.52 440.97 L 235.74 447.54 L 235.14 454.12 L 234.71 460.71 L 234.45 467.31 L 234.36 473.92 L 234.45 480.52 L 234.71 487.13 L 235.14 493.72 L 235.74 500.3 L 236.52 506.86 L 237.47 513.4 L 238.59 519.91 L 239.88 526.39 L 241.34 532.84 L 242.96 539.24 L 244.76 545.6 L 246.71 551.91 L 248.84 558.17 L 251.13 564.37 L 253.57 570.5 L 256.18 576.57 L 258.95 582.57 L 261.87 588.5 L 264.95 594.35 L 268.18 600.11 L 271.55 605.79 L 275.08 611.38 L 278.75 616.87 L 282.56 622.27 L 286.52 627.56 L 290.61 632.75 L 294.83 637.83 L 299.19 642.8 L 303.67 647.65 L 308.29 652.38 L 313.02 657 L 317.87 661.48 L 322.84 665.84 L 327.92 670.06 L 333.11 674.15 L 338.4 678.11 L 343.8 681.92 L 349.29 685.59 L 354.88 689.12 L 360.56 692.49 L 366.32 695.72 L 372.17 698.8 L 378.1 701.72 L 384.1 704.49 L 390.17 707.1 L 396.3 709.54 L 402.5 711.83 L 408.76 713.95 L 415.07 715.91 L 421.43 717.71 L 427.83 719.33 L 434.28 720.79 L 440.76 722.08 L 447.27 723.2 L 453.81 724.15 L 460.37 724.93 L 466.95 725.53 L 473.54 725.96 L 480.14 726.22 L 486.75 726.31 L 493.36 726.22 L 499.96 725.96 L 506.55 725.53 L 513.13 724.93 L 519.7 724.15 L 526.23 723.2 L 532.75 722.08 L 539.23 720.79 L 539.23 720.79 L 786.33 669.39 L 786.55 670.46 L 786.76 671.53 L 786.97 672.61 L 787.17 673.68 L 787.37 674.76 L 787.56 675.83 L 787.74 676.91 L 787.91 678 L 788.08 679.08 L 788.24 680.16 L 788.39 681.25 L 788.53 682.34 L 788.67 683.43 L 788.79 684.52 L 788.91 685.61 L 789.02 686.7 L 789.12 687.8 L 789.22 688.9 L 789.3 690 L 789.37 691.1 L 789.44 692.21 L 789.49 693.31 L 789.54 694.42 L 789.58 695.53 L 789.61 696.64 L 789.63 697.76 L 789.64 698.87 L 789.64 699.99 L 789.63 701.11 L 789.61 702.23 L 789.58 703.36 L 789.54 704.48 L 789.49 705.61 L 789.44 706.74 L 789.37 707.88 L 789.29 709.01 L 789.2 710.15 L 789.1 711.29 L 788.99 712.43 L 788.87 713.57 L 788.75 714.72 L 788.61 715.86 L 788.46 717.01 L 788.3 718.17 L 788.13 719.32 L 787.94 720.48 L 787.75 721.64 L 787.55 722.8 L 787.34 723.96 L 787.11 725.13 L 786.88 726.29 L 786.63 727.47 L 786.38 728.64 L 786.11 729.81 L 785.83 730.99 L 785.54 732.17 L 785.24 733.35 L 784.93 734.54 L 784.61 735.72 L 784.28 736.91 L 783.93 738.1 L 783.58 739.3 L 783.21 740.49 L 782.83 741.69 L 782.44 742.89 L 782.04 744.09 L 781.63 745.3 L 781.21 746.51 L 780.77 747.72 L 780.33 748.93 L 779.87 750.15 L 779.4 751.36 L 778.92 752.59 L 778.43 753.81 L 777.92 755.03 L 777.41 756.26 L 776.88 757.49 L 776.34 758.72 L 775.79 759.96 L 775.23 761.2 L 774.65 762.44 L 774.07 763.68 L 773.47 764.92 L 772.86 766.17 L 772.24 767.42 L 771.61 768.68 L 770.96 769.93 L 770.3 771.19 L 769.63 772.45 L 768.95 773.71 L 768.26 774.98 L 767.55 776.25 L 766.84 777.52 L 766.11 778.79 L 765.36 780.06 L 764.61 781.34 L 763.84 782.62 L 763.07 783.91 L 762.27 785.19 L 761.47 786.48 L 760.66 787.77 L 759.83 789.07 L 758.99 790.37 L 758.14 791.66 L 757.27 792.97 L 756.39 794.27 L 755.5 795.58 L 754.6 796.89 L 753.69 798.2 L 752.76 799.52 L 751.82 800.83 L 750.87 802.15 L 749.9 803.48 L 748.92 804.8 L 747.93 806.13 L 746.93 807.46 L 745.91 808.8 L 744.88 810.13 L 743.84 811.47 L 742.79 812.82 L 741.72 814.16 L 740.64 815.51 L 739.55 816.86 L 738.45 818.21 L 737.33 819.57 L 736.2 820.93 L 735.05 822.29 L 733.9 823.65 L 732.73 825.02 L 731.54 826.39 L 730.35 827.76 L 729.14 829.14 L 727.92 830.51 L 726.68 831.89 L 725.44 833.28 L 724.18 834.66 L 722.9 836.05 L 721.61 837.44 L 720.31 838.84 L 719 840.24 L 717.67 841.64 L 716.34 843.04 L 714.98 844.44 L 713.62 845.85 L 712.24 847.26 L 710.84 848.68 L 709.44 850.09 L 708.02 851.51 L 706.59 852.94 L 705.14 854.36 L 703.68 855.79 L 702.21 857.22 L 700.72 858.66 L 699.23 860.09 L 697.71 861.53 L 696.19 862.97 L 694.65 864.42 L 693.09 865.87 L 691.53 867.32 L 689.95 868.77 L 688.35 870.23 L 686.75 871.69 L 685.13 873.15 L 683.49 874.62 L 681.84 876.09 L 680.18 877.56 L 678.51 879.03 L 676.82 880.51 L 675.12 881.99 L 673.4 883.47 L 671.67 884.96 L 669.93 886.45 L 668.17 887.94 L 666.4 889.43 L 664.62 890.93 L 662.82 892.43 L 661 893.93 L 659.18 895.44 L 657.34 896.95 L 655.49 898.46 L 653.62 899.98 L 651.74 901.49 L 649.84 903.01 L 647.93 904.54 L 646.01 906.07 L 644.07 907.6 L 642.12 909.13 L 640.16 910.66 L 638.18 912.2 L 636.19 913.74 L 634.18 915.29 L 632.16 916.84 L 630.12 918.39 L 628.08 919.94 L 626.01 921.5 L 623.94 923.06 L 621.85 924.62 L 619.74 926.18 L 617.62 927.75 L 586.91 936.66 L 587.31 938.96 L 587.71 941.26 L 588.11 943.55 L 588.51 945.85 L 588.92 948.15 L 589.32 950.44 L 589.72 952.74 L 590.13 955.03 L 590.54 957.33 L 590.94 959.62 L 591.35 961.92 L 591.76 964.21 L 592.17 966.51 L 592.59 968.8 L 593 971.1 L 593.42 973.39 L 593.84 975.68 L 594.26 977.97 L 594.68 980.27 L 595.11 982.56 L 595.54 984.85 L 595.97 987.14 L 596.4 989.43 L 596.85 991.71 L 597.3 994 Z"/>
  <path fill="#1b3c31" d="M 584.94 229.2 L 585.78 230.25 L 586.76 231.18 L 587.85 231.98 L 589.04 232.62 L 590.3 233.09 L 591.62 233.39 L 592.96 233.52 L 594.31 233.47 L 595.64 233.23 L 596.92 232.82 L 598.14 232.24 L 599.27 231.51 L 600.3 230.63 L 601.19 229.62 L 601.95 228.5 L 602.55 227.3 L 602.98 226.02 L 620.99 158.16 L 621.61 155.04 L 621.84 151.86 L 621.66 148.68 L 621.08 145.55 L 620.11 142.51 L 618.77 139.62 L 568.7 47.61 L 568.2 46.83 L 567.6 46.12 L 566.9 45.5 L 566.12 44.99 L 565.28 44.58 L 564.4 44.3 L 563.48 44.14 L 562.55 44.11 L 561.62 44.2 L 560.72 44.43 L 559.85 44.78 L 559.04 45.24 L 558.31 45.81 L 557.66 46.48 L 557.11 47.23 L 556.66 48.05 L 556.34 48.92 L 556.13 49.83 L 540.56 153.42 L 540.28 156.59 L 540.41 159.77 L 540.94 162.91 L 541.86 165.96 L 543.15 168.87 L 544.81 171.6 Z"/>
  <path fill="#1b3c31" d="M 597.14 225.09 L 597.24 226.44 L 597.53 227.77 L 597.99 229.04 L 598.61 230.24 L 599.4 231.34 L 600.32 232.33 L 601.36 233.19 L 602.51 233.9 L 603.75 234.45 L 605.05 234.83 L 606.39 235.04 L 607.74 235.06 L 609.08 234.9 L 610.4 234.56 L 611.65 234.05 L 612.82 233.38 L 613.9 232.56 L 664.08 188.43 L 666.32 186.19 L 668.26 183.7 L 669.87 180.98 L 671.13 178.09 L 672.02 175.06 L 672.53 171.94 L 682.33 71.99 L 682.36 71.06 L 682.26 70.13 L 682.03 69.23 L 681.67 68.36 L 681.2 67.56 L 680.63 66.82 L 679.95 66.18 L 679.2 65.63 L 678.37 65.19 L 677.49 64.87 L 676.58 64.67 L 675.65 64.61 L 674.72 64.67 L 673.8 64.86 L 672.92 65.18 L 672.1 65.61 L 671.34 66.16 L 670.66 66.8 L 602.95 140.96 L 600.97 143.42 L 599.31 146.11 L 598.01 148.99 L 597.07 152.01 L 596.51 155.12 L 596.35 158.27 Z"/>
  <path fill="#1b3c31" d="M 607.29 229.51 L 606.69 230.77 L 606.27 232.1 L 606.04 233.47 L 606 234.87 L 606.15 236.25 L 606.49 237.61 L 607.02 238.9 L 607.72 240.11 L 608.58 241.21 L 609.58 242.18 L 610.7 243 L 611.93 243.66 L 613.24 244.15 L 614.6 244.45 L 616 244.56 L 617.39 244.47 L 670.49 237.57 L 673.84 236.9 L 677.06 235.79 L 680.11 234.25 L 682.92 232.32 L 685.45 230.02 L 687.64 227.4 L 735.72 161.4 L 736.21 160.63 L 736.58 159.79 L 736.85 158.92 L 736.99 158.02 L 737 157.1 L 736.89 156.19 L 736.67 155.31 L 736.32 154.46 L 735.86 153.67 L 735.3 152.95 L 734.64 152.31 L 733.91 151.77 L 733.11 151.33 L 732.26 151 L 731.37 150.8 L 730.46 150.71 L 729.54 150.75 L 728.64 150.91 L 649.43 170.76 L 646.19 171.82 L 643.11 173.3 L 640.26 175.18 L 637.7 177.43 L 635.46 180 L 633.58 182.85 Z"/>
</svg>
